<?xml version="1.0" standalone="no"?>
<!DOCTYPE svg PUBLIC "-//W3C//DTD SVG 20010904//EN"
 "http://www.w3.org/TR/2001/REC-SVG-20010904/DTD/svg10.dtd">
<svg version="1.0" xmlns="http://www.w3.org/2000/svg"
 width="300.000000pt" height="300.000000pt" viewBox="0 0 300.000000 300.000000"
 preserveAspectRatio="xMidYMid meet">

<g transform="translate(0.000000,300.000000) scale(0.100000,-0.100000)"
fill="#6366f1" stroke="none">
<path d="M1463 2808 c-30 -14 -34 -29 -40 -134 l-6 -92 -66 -16 c-36 -9 -101
-30 -143 -48 l-78 -32 -42 33 c-24 17 -67 48 -96 68 -48 33 -54 35 -78 22 -38
-20 -264 -243 -264 -260 0 -8 25 -55 55 -103 l56 -88 -20 -32 c-60 -94 -99
-170 -128 -246 l-31 -85 -92 -6 c-138 -9 -134 -3 -138 -245 -4 -202 2 -246 36
-259 9 -3 53 -11 97 -16 82 -10 95 -18 95 -56 0 -40 61 -208 95 -265 19 -31
35 -59 35 -63 0 -4 -15 -28 -34 -54 -18 -25 -45 -68 -61 -94 l-27 -48 27 -38
c37 -55 260 -271 279 -271 8 0 55 27 104 60 l90 60 68 -40 c61 -35 151 -67
235 -84 26 -6 27 -8 31 -96 3 -63 9 -95 19 -106 19 -19 192 -30 293 -19 101
10 106 18 106 160 0 132 -15 114 130 159 232 73 448 239 587 452 106 163 143
281 150 487 8 206 -19 341 -99 502 -146 291 -415 497 -738 564 l-85 18 -5 142
c-6 185 -3 181 -174 180 -66 0 -131 -5 -143 -11z m385 -553 c309 -65 542 -289
628 -605 24 -90 25 -310 1 -400 -27 -103 -98 -237 -172 -323 -36 -42 -70 -77
-75 -77 -6 0 -10 188 -10 513 0 281 -4 517 -8 523 -16 25 -55 34 -141 34 -145
0 -131 65 -131 -622 0 -321 -4 -589 -8 -596 -8 -12 -101 -52 -122 -52 -6 0
-10 165 -10 466 0 302 -4 472 -10 485 -10 17 -22 19 -125 19 -62 0 -120 -3
-129 -6 -14 -5 -16 -57 -16 -481 l0 -475 -29 5 c-17 4 -47 14 -68 24 l-38 18
-5 313 c-4 263 -7 314 -20 322 -8 5 -63 10 -122 10 -140 0 -138 2 -137 -175 0
-71 4 -164 8 -205 5 -41 5 -78 1 -83 -12 -14 -100 107 -145 198 -67 137 -79
195 -80 365 0 164 13 227 71 349 108 230 303 392 542 451 95 23 254 26 350 5z"/>
</g>
</svg>